PathFileType	4	(X/Y/Z)	/home/ubuntu/injury_detection/risk_analysis_package/data/KD_injured/trc_data/trials/KD_injured.trc
DataRate	CameraRate	NumFrames	NumMarkers	Units	OrigDataRate	OrigDataStartFrame	OrigNumFrames
30	30	4	105	m	30	36	98
Frame#	Time	BLTI			BRTI			C7			CHIN			CLAV			FBBT			FLTI			FRBT			FRTI			LAKI			LANK			LBAC			LBHD			LBWT			LELB			LELS			LELSO			LFBB			LFBT			LFFB			LFFT			LFHD			LFIN			LFLB			LFLT			LFMB			LFMT			LFPI			LFRM			LFWT			LHAP			LHBA			LHEB			LHEE			LHFR			LHME			LHPI			LHTH			LHTO			LKNE			LKNI			LMT5			LSCA			LSHN			LSHO			LTIA			LTIB			LTIC			LTOE			LTOP			LTOS			LUMB			LUMC			LWRA			LWRB			NOSE			RAKI			RANK			RBAC			RBHD			RBWT			RELB			RELS			RELSO			RFBB			RFBT			RFFB			RFFT			RFHD			RFIN			RFLB			RFLT			RFMB			RFMT			RFPI			RFRM			RFWT			RHAP			RHBA			RHEB			RHEE			RHFR			RHME			RHPI			RHTH			RHTO			RIBL			RIBR			RITL			RITR			RKNE			RKNI			RMT5			RSCA			RSHN			RSHO			RTIA			RTIB			RTIC			RTOE			RTOP			RTOS			RWRA			RWRB			THD		
		X1	Y1	Z1	X2	Y2	Z2	X3	Y3	Z3	X4	Y4	Z4	X5	Y5	Z5	X6	Y6	Z6	X7	Y7	Z7	X8	Y8	Z8	X9	Y9	Z9	X10	Y10	Z10	X11	Y11	Z11	X12	Y12	Z12	X13	Y13	Z13	X14	Y14	Z14	X15	Y15	Z15	X16	Y16	Z16	X17	Y17	Z17	X18	Y18	Z18	X19	Y19	Z19	X20	Y20	Z20	X21	Y21	Z21	X22	Y22	Z22	X23	Y23	Z23	X24	Y24	Z24	X25	Y25	Z25	X26	Y26	Z26	X27	Y27	Z27	X28	Y28	Z28	X29	Y29	Z29	X30	Y30	Z30	X31	Y31	Z31	X32	Y32	Z32	X33	Y33	Z33	X34	Y34	Z34	X35	Y35	Z35	X36	Y36	Z36	X37	Y37	Z37	X38	Y38	Z38	X39	Y39	Z39	X40	Y40	Z40	X41	Y41	Z41	X42	Y42	Z42	X43	Y43	Z43	X44	Y44	Z44	X45	Y45	Z45	X46	Y46	Z46	X47	Y47	Z47	X48	Y48	Z48	X49	Y49	Z49	X50	Y50	Z50	X51	Y51	Z51	X52	Y52	Z52	X53	Y53	Z53	X54	Y54	Z54	X55	Y55	Z55	X56	Y56	Z56	X57	Y57	Z57	X58	Y58	Z58	X59	Y59	Z59	X60	Y60	Z60	X61	Y61	Z61	X62	Y62	Z62	X63	Y63	Z63	X64	Y64	Z64	X65	Y65	Z65	X66	Y66	Z66	X67	Y67	Z67	X68	Y68	Z68	X69	Y69	Z69	X70	Y70	Z70	X71	Y71	Z71	X72	Y72	Z72	X73	Y73	Z73	X74	Y74	Z74	X75	Y75	Z75	X76	Y76	Z76	X77	Y77	Z77	X78	Y78	Z78	X79	Y79	Z79	X80	Y80	Z80	X81	Y81	Z81	X82	Y82	Z82	X83	Y83	Z83	X84	Y84	Z84	X85	Y85	Z85	X86	Y86	Z86	X87	Y87	Z87	X88	Y88	Z88	X89	Y89	Z89	X90	Y90	Z90	X91	Y91	Z91	X92	Y92	Z92	X93	Y93	Z93	X94	Y94	Z94	X95	Y95	Z95	X96	Y96	Z96	X97	Y97	Z97	X98	Y98	Z98	X99	Y99	Z99	X100	Y100	Z100	X101	Y101	Z101	X102	Y102	Z102	X103	Y103	Z103	X104	Y104	Z104	X105	Y105	Z105

37	1.2	-0.148128	-0.456079	79.9823	0.00179547	-0.309987	80.0388	-0.0238829	0.138405	79.6977	0.0163347	0.0609361	79.5722	-0.0170127	0.0656765	79.5863	-0.134892	-0.408574	80.0591	-0.200494	-0.363384	79.9676	-0.00133532	-0.266984	80.1237	-0.0264612	-0.20632	80.0156	-0.145073	-0.469979	80.1385	-0.0930739	-0.506516	80.1161	0.192252	0.172931	79.6489	-0.0741464	-0.105282	79.5959	0.0405007	-0.0794217	79.3478	0.338317	0.1904	79.4903	0.284613	0.193392	79.4761	0.338705	0.156025	79.4859	-0.154606	-0.270658	79.7124	-0.0564208	-0.225149	79.6053	-0.267728	-0.199251	79.7726	-0.164432	-0.134222	79.5914	0.0204812	-0.0819414	79.5089	0.513288	0.201774	79.2114	-0.18208	-0.201306	79.7744	-0.0574345	-0.119364	79.6821	-0.235928	-0.249246	79.6854	-0.132624	-0.18797	79.5506	0.0317929	-0.392013	80.1324	0.412844	0.21926	79.4028	0.0862774	-0.0439697	79.5474	0.18968	0.102195	79.5854	0.267244	0.173864	79.57	-0.0835315	-0.544981	80.1858	-0.11692	-0.561044	80.1632	0.242061	0.0966903	79.5381	0.576225	0.156436	79.1478	0.543496	0.242777	79.2421	0.44952	0.241888	79.1976	0.262968	0.0962244	79.6197	-0.202766	-0.262319	79.8038	-0.286895	-0.281448	79.7931	0.00300428	-0.366721	80.1527	0.0665477	0.126621	79.7277	-0.147467	-0.353207	79.859	0.129766	0.0343374	79.7298	-0.231536	-0.280512	79.8721	-0.153786	-0.361964	79.9962	-0.135732	-0.426798	80.0926	0.00988588	-0.315603	80.1585	0.00791374	-0.435032	80.1311	-0.0359412	-0.37	80.1911	0.152905	0.0746078	79.3553	0.128238	0.0484239	79.3436	0.44453	0.263535	79.257	0.489553	0.264199	79.2916	0.014668	0.00663316	79.4838	0.0727912	-0.287593	80.169	0.0690763	-0.351234	80.1916	0.0832604	0.28561	79.5625	-0.137518	-0.0494253	79.555	-0.0034558	-0.0353108	79.3278	-0.165607	-0.0599219	79.2886	-0.116126	-0.0251481	79.2954	-0.179591	-0.039662	79.3182	-0.15431	-0.16169	79.7299	-0.164448	-0.125141	79.5672	-0.0926931	-0.0845178	79.843	-0.0473553	-0.0635385	79.637	-0.072211	0.0065597	79.4634	0.00883597	-0.357888	79.3945	-0.162982	-0.10503	79.7906	-0.174948	0.00988269	79.6319	-0.0827983	-0.157422	79.7381	-0.0715584	-0.127029	79.5864	0.0395437	-0.262191	80.3578	-0.134341	-0.158446	79.3237	-0.0623376	0.0975218	79.471	-0.0689993	0.12346	79.4117	-0.140899	0.0777303	79.3418	0.155136	-0.327912	80.2145	0.141331	-0.348224	80.179	-0.0971415	0.0210122	79.391	0.0515376	-0.442643	79.4004	-0.042692	-0.364057	79.3645	0.0341731	-0.285341	79.3703	-0.150509	0.0784358	79.4165	0.144697	-0.0291028	79.5159	0.0161032	0.173207	79.3803	0.0494027	0.0219545	79.6125	-0.0385132	0.108122	79.5386	-0.153659	-0.151843	79.8629	-0.0705484	-0.150534	79.8383	0.0302962	-0.24418	80.3263	-0.0510224	0.244195	79.6115	-0.0852145	-0.260889	80.0148	-0.111523	0.183154	79.545	-0.0979363	-0.148738	79.9274	-0.045546	-0.205818	80.029	0.0254961	-0.274189	80.1514	0.00503191	-0.201414	80.3233	0.0649637	-0.306127	80.3419	0.055686	-0.222709	80.2903	-0.0301859	-0.258749	79.3913	-0.076257	-0.286819	79.3808	-0.0855665	-0.127777	79.4464
38	1.23333	-0.184183	-0.481686	80.2507	-0.0102211	-0.30929	80.3303	-0.0299788	0.12897	79.9927	0.00982551	0.0547769	79.8654	-0.023144	0.0593756	79.8792	-0.172611	-0.438289	80.3302	-0.232445	-0.386241	80.2384	-0.0135222	-0.266929	80.4149	-0.0389196	-0.205761	80.3078	-0.188836	-0.503315	80.4062	-0.136569	-0.539674	80.3837	0.188	0.158919	79.9487	-0.0854909	-0.109584	79.8816	0.0362746	-0.0829416	79.6396	0.339607	0.167747	79.7899	0.286333	0.173994	79.7752	0.337838	0.133469	79.7855	-0.171874	-0.282176	79.9903	-0.0685749	-0.234591	79.8902	-0.286486	-0.211409	80.0485	-0.1748	-0.141465	79.8748	0.0106113	-0.0854868	79.7964	0.516781	0.168706	79.5118	-0.200987	-0.214852	80.054	-0.071477	-0.131303	79.9706	-0.251584	-0.25866	79.9609	-0.141804	-0.19419	79.8339	-0.0130218	-0.42421	80.4129	0.416371	0.192063	79.7029	0.0802378	-0.0525707	79.8407	0.184744	0.0880642	79.8829	0.266313	0.154997	79.8689	-0.129628	-0.581631	80.4513	-0.162394	-0.596134	80.4264	0.237079	0.0797029	79.8362	0.577264	0.119632	79.4487	0.549167	0.207776	79.5427	0.455592	0.212407	79.4978	0.256868	0.0774968	79.9181	-0.224038	-0.277133	80.0798	-0.308058	-0.293554	80.0647	-0.0432263	-0.400993	80.4339	0.0594367	0.114414	80.0237	-0.174536	-0.373115	80.1325	0.119583	0.0209073	80.0247	-0.25638	-0.297842	80.1459	-0.18703	-0.388006	80.2689	-0.175984	-0.458153	80.3629	-0.0377313	-0.350474	80.4443	-0.0361595	-0.467709	80.407	-0.0833886	-0.40754	80.4701	0.150575	0.0692272	79.6518	0.125585	0.043763	79.6392	0.451618	0.23421	79.5572	0.496337	0.232264	79.592	0.00752315	0.00421241	79.7748	0.0611636	-0.287417	80.4603	0.057117	-0.351399	80.4823	0.0830791	0.277063	79.863	-0.14672	-0.0502731	79.8423	-0.0069803	-0.0377866	79.6203	-0.173467	-0.0530934	79.5757	-0.122673	-0.0200157	79.5834	-0.186624	-0.0333077	79.6061	-0.164545	-0.162141	80.0221	-0.171037	-0.127669	79.8583	-0.105595	-0.0831969	80.1363	-0.0558171	-0.0649832	79.9302	-0.0791168	0.00749676	79.7536	-0.00821546	-0.360117	79.6701	-0.174643	-0.104808	80.082	-0.183164	0.00781028	79.9214	-0.0933447	-0.157234	80.0319	-0.0785995	-0.12932	79.8796	0.0189742	-0.266869	80.6478	-0.145021	-0.153668	79.6076	-0.0656189	0.0925736	79.7655	-0.0708435	0.123354	79.7047	-0.144174	0.0821282	79.6332	0.142	-0.328471	80.509	0.130066	-0.347926	80.4724	-0.102162	0.0225207	79.6805	0.0308467	-0.446771	79.6727	-0.0602366	-0.362994	79.6404	0.0198082	-0.287935	79.6485	-0.153801	0.0807257	79.7079	0.139813	-0.0390142	79.8097	0.0155709	0.168685	79.6782	0.041329	0.0128751	79.9052	-0.0422727	0.103712	79.8323	-0.166276	-0.150657	80.1552	-0.0831189	-0.149341	80.1317	0.0117109	-0.247871	80.6164	-0.0531469	0.237734	79.9088	-0.0975107	-0.26047	80.3069	-0.113276	0.179764	79.8392	-0.110775	-0.147776	80.2201	-0.0579414	-0.205387	80.3212	0.0134914	-0.27408	80.4422	-0.0129698	-0.204592	80.6132	0.0451493	-0.310452	80.6322	0.0389275	-0.225683	80.5822	-0.043232	-0.259298	79.6711	-0.09038	-0.285399	79.6602	-0.0961049	-0.125735	79.7311
39	1.26667	-0.205972	-0.486443	80.0264	-0.0238257	-0.319432	80.1071	-0.0329401	0.12044	79.7792	0.00567739	0.0501976	79.6494	-0.0268599	0.0543114	79.6635	-0.192939	-0.44408	80.1065	-0.2497	-0.388669	80.0147	-0.0253348	-0.278808	80.1922	-0.0495208	-0.214689	80.0869	-0.212754	-0.509062	80.1821	-0.161707	-0.54684	80.1592	0.185213	0.149747	79.7362	-0.0911271	-0.113719	79.6602	0.0317379	-0.0829999	79.4211	0.339006	0.154053	79.5751	0.285789	0.162106	79.5607	0.335951	0.119885	79.5705	-0.182969	-0.283572	79.7676	-0.0774406	-0.237221	79.6686	-0.295644	-0.210353	79.8263	-0.181319	-0.141324	79.6543	0.00449402	-0.0873708	79.5752	0.511957	0.151605	79.294	-0.210408	-0.216559	79.8323	-0.0782507	-0.135063	79.7509	-0.261665	-0.257294	79.7382	-0.149349	-0.194286	79.6128	-0.0359904	-0.433626	80.1905	0.415359	0.176484	79.487	0.0756646	-0.0575943	79.6229	0.181486	0.0790193	79.668	0.265102	0.143141	79.6543	-0.155702	-0.589567	80.226	-0.188932	-0.602888	80.2009	0.233211	0.0691966	79.6211	0.569601	0.101003	79.2294	0.546165	0.189053	79.3249	0.452123	0.197535	79.2815	0.25313	0.0656485	79.703	-0.235524	-0.278782	79.857	-0.319943	-0.291545	79.8413	-0.0657355	-0.410338	80.212	0.0559899	0.104624	79.8093	-0.1907	-0.377568	79.9091	0.114689	0.0112236	79.8082	-0.269027	-0.298726	79.9227	-0.204615	-0.392756	80.0453	-0.197714	-0.464002	80.1391	-0.0593732	-0.360112	80.2235	-0.0597683	-0.476632	80.1839	-0.105912	-0.416798	80.2482	0.147211	0.0682981	79.4368	0.122116	0.0432513	79.4235	0.449863	0.218629	79.3411	0.494992	0.214807	79.3753	0.00219078	0.00313739	79.5569	0.0491875	-0.302544	80.2368	0.043218	-0.366855	80.2575	0.0812121	0.271515	79.6535	-0.151999	-0.0524085	79.6236	-0.0109729	-0.0369094	79.4026	-0.18248	-0.0454938	79.3563	-0.130919	-0.0133897	79.3643	-0.194599	-0.0266862	79.3878	-0.17423	-0.162945	79.8028	-0.178348	-0.127266	79.639	-0.113537	-0.0866043	79.9185	-0.0620884	-0.0683046	79.7123	-0.0846617	0.00810517	79.5366	-0.019105	-0.358265	79.4333	-0.182931	-0.105819	79.8633	-0.187279	0.00792313	79.7033	-0.102996	-0.159948	79.8132	-0.0861835	-0.13163	79.6609	0.00265035	-0.286714	80.4237	-0.154503	-0.147614	79.3837	-0.068339	0.0910846	79.5504	-0.0746316	0.124338	79.4902	-0.14986	0.0870101	79.4183	0.127984	-0.347099	80.2864	0.116599	-0.365153	80.2489	-0.107933	0.0250665	79.4627	0.0182801	-0.445665	79.4305	-0.0720324	-0.358735	79.4052	0.00957778	-0.285678	79.4144	-0.158183	0.0829484	79.493	0.136798	-0.0445493	79.5923	0.0127399	0.166959	79.4664	0.0370295	0.00641997	79.688	-0.0454266	0.100231	79.6179	-0.176101	-0.15243	79.9362	-0.0931498	-0.153288	79.9128	-0.00312433	-0.2663	80.3929	-0.0553123	0.23189	79.6983	-0.109887	-0.267487	80.0854	-0.115524	0.176342	79.6266	-0.120188	-0.152612	80.001	-0.068365	-0.213962	80.1004	0.0016852	-0.287357	80.2189	-0.0264022	-0.222065	80.3908	0.0280843	-0.330484	80.4073	0.0255033	-0.243751	80.36	-0.0522411	-0.256852	79.4403	-0.100047	-0.281881	79.4297	-0.103109	-0.12411	79.5092
40	1.3	-0.233155	-0.51009	81.0055	-0.0312024	-0.315633	81.1104	-0.0427045	0.116956	80.7807	-0.0042583	0.0477941	80.6506	-0.0364218	0.0518085	80.6644	-0.22239	-0.472099	81.088	-0.27488	-0.410976	80.9973	-0.0325448	-0.274279	81.1949	-0.0586852	-0.211502	81.0896	-0.246165	-0.540674	81.1593	-0.194607	-0.577712	81.1362	0.17729	0.140072	80.742	-0.105473	-0.1136	80.6571	0.0250424	-0.0879335	80.4233	0.333939	0.139653	80.5826	0.281169	0.149902	80.5678	0.329608	0.105713	80.5776	-0.19739	-0.294618	80.7585	-0.0885936	-0.246192	80.6654	-0.312012	-0.223243	80.8155	-0.19191	-0.149477	80.6497	-0.00817014	-0.0882393	80.5736	0.508899	0.134747	80.3027	-0.227096	-0.229629	80.8243	-0.0921177	-0.145956	80.7502	-0.274994	-0.267489	80.7271	-0.158442	-0.201379	80.6083	-0.0701229	-0.466054	81.1791	0.411878	0.160407	80.4955	0.0675978	-0.0647903	80.6259	0.172465	0.0696742	80.6727	0.258562	0.130719	80.6608	-0.191056	-0.623892	81.2008	-0.223469	-0.635597	81.1737	0.224198	0.0584223	80.6263	0.564837	0.0828633	80.2376	0.544389	0.170303	80.3343	0.450967	0.183081	80.2907	0.242862	0.0532545	80.7084	-0.253261	-0.292904	80.8459	-0.337164	-0.304551	80.8268	-0.100828	-0.44414	81.2009	0.0454464	0.0985694	80.8121	-0.211892	-0.39551	80.8946	0.101117	0.00325516	80.8114	-0.289493	-0.316022	80.9094	-0.231018	-0.417458	81.0292	-0.228828	-0.493659	81.1194	-0.0951514	-0.394826	81.2158	-0.0935334	-0.50871	81.1688	-0.142246	-0.452809	81.2349	0.141911	0.0614387	80.4413	0.116462	0.0369642	80.4276	0.449235	0.203124	80.3505	0.493929	0.197179	80.385	-0.00791533	0.00266446	80.5571	0.0429651	-0.29643	81.2392	0.0378366	-0.360774	81.2606	0.0777936	0.265727	80.6579	-0.164204	-0.0499357	80.621	-0.0173128	-0.0413949	80.4052	-0.183988	-0.0441261	80.353	-0.132143	-0.0127766	80.3626	-0.196688	-0.0253129	80.3842	-0.183811	-0.165073	80.8058	-0.185596	-0.131823	80.641	-0.126032	-0.0858303	80.9216	-0.0715123	-0.0699626	80.7155	-0.0942906	0.0103687	80.5359	-0.0267016	-0.359571	80.4317	-0.194337	-0.107197	80.8655	-0.19765	0.00401448	80.7035	-0.112762	-0.160608	80.8172	-0.0936912	-0.134553	80.6644	-0.00637186	-0.28036	81.4252	-0.158064	-0.146841	80.3804	-0.074928	0.0854827	80.5536	-0.0772784	0.123609	80.491	-0.151102	0.0877382	80.4166	0.121955	-0.339579	81.2902	0.111386	-0.358024	81.2527	-0.11122	0.0248511	80.4618	0.00955406	-0.447469	80.4292	-0.0788741	-0.359034	80.4021	0.00338402	-0.287239	80.4144	-0.161501	0.0833903	80.491	0.128046	-0.0522641	80.5962	0.00910585	0.16197	80.47	0.0253794	0.00149207	80.6896	-0.0524742	0.0984188	80.6188	-0.187443	-0.152499	80.9394	-0.104391	-0.152408	80.9163	-0.0118501	-0.260159	81.3943	-0.0611037	0.229243	80.7002	-0.118244	-0.265237	81.0891	-0.120853	0.175231	80.6267	-0.131214	-0.151212	81.0039	-0.0774317	-0.210952	81.1032	-0.00507578	-0.282125	81.2213	-0.0353348	-0.215999	81.3916	0.0197757	-0.323966	81.4095	0.0169153	-0.23763	81.3615	-0.0587027	-0.257772	80.439	-0.106499	-0.282155	80.4268	-0.115989	-0.120797	80.5058
